<?xml version="1.0" standalone="no"?>
<!DOCTYPE svg PUBLIC "-//W3C//DTD SVG 20010904//EN"
 "http://www.w3.org/TR/2001/REC-SVG-20010904/DTD/svg10.dtd">
<svg version="1.0" xmlns="http://www.w3.org/2000/svg"
 width="151.000000pt" height="151.000000pt" viewBox="0 0 151.000000 151.000000"
 preserveAspectRatio="xMidYMid meet">

<g transform="translate(0.000000,151.000000) scale(0.100000,-0.100000)"
fill="#000000" stroke="none">
<path d="M890 1152 c0 -4 -22 -8 -50 -9 -55 -1 -80 -5 -80 -10 0 -2 19 -24 42
-49 49 -53 43 -67 -27 -62 -46 3 -50 6 -71 45 -12 23 -25 39 -29 35 -5 -4 -5
-2 -2 5 4 6 4 18 1 27 -5 12 -10 13 -26 5 -11 -6 -31 -8 -44 -5 -14 4 -24 2
-24 -5 0 -6 -7 -3 -16 5 -21 21 -30 20 -13 -1 7 -10 9 -15 4 -10 -4 4 -19 0
-33 -9 -13 -9 -21 -11 -18 -5 4 6 0 11 -11 12 -10 0 -35 1 -56 3 -21 2 -40 -2
-44 -7 -3 -6 -1 -7 5 -3 27 17 9 -14 -20 -35 -99 -72 -178 -184 -212 -298 -22
-74 -21 -95 3 -88 18 4 19 0 14 -67 -14 -192 81 -367 267 -491 75 -50 80 -52
80 -30 0 13 6 12 40 -5 151 -77 338 -58 504 51 l67 44 -93 6 c-165 10 -253 59
-265 148 -3 22 -3 41 -1 41 3 0 22 -7 41 -15 80 -33 200 -12 251 44 22 25 23
24 -31 39 -42 13 -92 46 -82 56 3 3 21 1 40 -4 18 -5 63 -17 99 -25 74 -18 80
-22 89 -63 l6 -30 53 35 c70 47 99 98 108 190 6 63 4 75 -15 101 -13 19 -33
32 -54 36 -44 8 -87 55 -130 141 -42 85 -65 107 -119 114 -39 6 -43 9 -73 70
-19 37 -42 68 -54 73 -12 4 -21 4 -21 0z m-218 -123 c-13 -5 -7 -11 25 -28 47
-23 94 -27 142 -10 47 16 103 -3 158 -54 42 -39 44 -40 38 -14 -4 15 -3 27 2
27 32 0 93 -84 93 -129 0 -26 -18 -37 -26 -16 -6 13 -8 12 -18 -7 -20 -41 -50
-34 -97 22 -49 57 -113 100 -150 100 -22 0 -21 -2 11 -22 35 -22 35 -22 10
-27 l-25 -6 39 -40 c32 -33 38 -36 33 -17 -3 12 -2 22 2 22 9 0 77 -70 71 -74
-3 -1 12 -17 33 -36 l38 -33 -7 26 c-6 25 -4 27 29 27 20 0 46 9 61 21 l27 21
39 -36 c23 -21 50 -36 65 -36 34 0 52 -35 31 -59 -18 -20 -21 -41 -6 -41 29 0
-11 -103 -44 -116 -8 -3 -25 2 -38 10 -14 9 -63 23 -109 32 -94 17 -151 44
-183 87 -17 23 -18 29 -6 37 8 5 18 6 22 4 4 -3 8 -1 8 5 0 14 -34 31 -64 31
-28 0 -56 -33 -56 -67 0 -25 10 -29 27 -12 8 8 17 -9 32 -60 14 -47 33 -82 55
-106 25 -26 31 -37 20 -41 -8 -2 -21 -6 -30 -9 -17 -6 -80 9 -103 24 -12 8
-12 12 -2 25 19 23 7 34 -94 81 -120 55 -162 95 -115 108 61 16 10 102 -73
123 l-28 6 25 -37 c29 -43 35 -78 11 -69 -21 9 -19 -22 5 -60 21 -35 80 -81
148 -115 42 -21 43 -23 27 -41 -12 -14 -16 -32 -13 -64 3 -42 1 -45 -17 -40
-11 4 -31 15 -44 26 -58 45 -22 -30 42 -89 51 -47 125 -88 207 -114 l55 -17
-40 -19 c-31 -13 -65 -18 -145 -18 -100 0 -108 2 -166 33 -34 19 -74 47 -90
63 l-28 29 40 0 39 0 -31 19 c-67 41 -103 105 -132 236 l-9 40 -8 -63 c-14
-114 -45 -26 -54 153 -6 129 -6 130 -29 127 -22 -3 -23 -1 -17 30 21 95 96
187 177 216 54 19 60 29 23 38 -14 3 -25 10 -25 15 0 14 59 40 124 53 l61 13
22 -41 c19 -37 20 -42 5 -47z"/>
</g>
</svg>
